<svg xmlns="http://www.w3.org/2000/svg" viewBox="0 0 48 48"><defs><style>.cls-1{fill:#4ac6b7;}.cls-2{fill:#bfcae2;}.cls-3{fill:#29a892;}.cls-4{fill:#d3dbef;}.cls-5{fill:#505572;}.cls-6{fill:#3d4360;}.cls-7{fill:#1b967e;}.cls-8{fill:#ffbc5a;}.cls-9{fill:#ef9d3a;}.cls-10{fill:#231f20;}</style></defs><title>Investor</title><g id="Investor"><rect class="cls-1" x="12" y="27" width="14" height="19"/><path class="cls-2" d="M22,27a3.699,3.699,0,0,1-3,2,3.699,3.699,0,0,1-3-2V20h6Z"/><path class="cls-3" d="M12,27h0A10,10,0,0,0,2,37v7a2,2,0,0,0,2,2H17C12,39,12,27,12,27Z"/><path class="cls-3" d="M26,27h0A10,10,0,0,1,36,37v9H21C26,42,26,27,26,27Z"/><path class="cls-4" d="M28,11V6a4,4,0,0,0-4-4H14a4,4,0,0,0-4,4v5a2,2,0,0,0,0,4h0a9,9,0,0,0,9,9h0a9,9,0,0,0,9-9h0a2,2,0,0,0,0-4Z"/><path class="cls-2" d="M28,11V6a3.983,3.983,0,0,0-2-3.4453V15a8.9987,8.9987,0,0,1-8,8.9413A8.9753,8.9753,0,0,0,28,15a2,2,0,0,0,0-4Z"/><path class="cls-5" d="M14,6s4,3,14,3V6a4,4,0,0,0-4-4H14a4,4,0,0,0-4,4V9S13,8,14,6Z"/><path class="cls-6" d="M24,2H22a4,4,0,0,1,4,4V8.8981A19.4892,19.4892,0,0,0,28,9V6A4,4,0,0,0,24,2Z"/><path class="cls-7" d="M31.04,28.373A22.422,22.422,0,0,0,28,39v2a6.9758,6.9758,0,0,0,2.1107,5H36V37A9.9867,9.9867,0,0,0,31.04,28.373Z"/><path class="cls-8" d="M41,26H35s-5,6-5,13v2a5,5,0,0,0,5,5h6a5,5,0,0,0,5-5V39C46,32,41,26,41,26Z"/><path class="cls-5" d="M39,41H36a1,1,0,0,1,0-2h3V38H37a2.0026,2.0026,0,0,1-2-2V35a2.0026,2.0026,0,0,1,2-2h3a1,1,0,0,1,0,2H37v1h2a2.0026,2.0026,0,0,1,2,2v1A2.0026,2.0026,0,0,1,39,41Z"/><path class="cls-5" d="M38,35a.9994.9994,0,0,1-1-1V33a1,1,0,0,1,2,0v1A.9994.9994,0,0,1,38,35Z"/><path class="cls-5" d="M38,42a.9994.9994,0,0,1-1-1V40a1,1,0,0,1,2,0v1A.9994.9994,0,0,1,38,42Z"/><path class="cls-9" d="M43,21a13,13,0,0,0-10,0l2,5h6Z"/><path class="cls-10" d="M42.142,25.8378l1.7867-4.4667a1,1,0,0,0-.4814-1.2656,13.9736,13.9736,0,0,0-10.8945,0,1,1,0,0,0-.4814,1.2656l1.7867,4.4667a25.7488,25.7488,0,0,0-1.4832,2.2145A10.9524,10.9524,0,0,0,26,26H23V24.1545a10.0128,10.0128,0,0,0,5.9648-8.3137A3.0006,3.0006,0,0,0,29,10.1709V6a5.0059,5.0059,0,0,0-5-5H14A5.0059,5.0059,0,0,0,9,6v4.1709a3.0006,3.0006,0,0,0,.0352,5.67A10.0128,10.0128,0,0,0,15,24.1545V26H12A11.0124,11.0124,0,0,0,1,37v7a3.0033,3.0033,0,0,0,3,3H41a6.0066,6.0066,0,0,0,6-6V39C47,32.7758,43.3383,27.4224,42.142,25.8378ZM38,21a12.1839,12.1839,0,0,1,3.6953.5684L40.3232,25H35.6768l-1.374-3.4346A12.1361,12.1361,0,0,1,38,21ZM20.5992,45H17.53c-3.6849-5.5353-4.3731-14.103-4.5-17h2.42A4.4229,4.4229,0,0,0,19,30a4.4229,4.4229,0,0,0,3.55-2h2.4338C24.8629,32.527,23.9243,41.9527,20.5992,45ZM11,6a3.0033,3.0033,0,0,1,3-3H24a3.0033,3.0033,0,0,1,3,3V7.9893c-8.7041-.1846-12.3408-2.7471-12.4043-2.792a.9991.9991,0,0,0-1.49.3555A5.1052,5.1052,0,0,1,11,7.4541Zm0,9a.9994.9994,0,0,0-1-1,1,1,0,0,1,0-2,.9994.9994,0,0,0,1-1V9.6763a9.0794,9.0794,0,0,0,3.3037-2.3286c1.65.8752,5.6434,2.4951,12.6963,2.6382V11a.9994.9994,0,0,0,1,1,1,1,0,0,1,0,2,.9994.9994,0,0,0-1,1,8,8,0,0,1-16,0Zm8,10a9.9951,9.9951,0,0,0,2-.2048v1.9323A2.5711,2.5711,0,0,1,19,28a2.5712,2.5712,0,0,1-2-1.2725V24.7952A9.9951,9.9951,0,0,0,19,25ZM4,45a1.0007,1.0007,0,0,1-1-1V37a9.0124,9.0124,0,0,1,8.0254-8.9473c.1133,2.877.7363,10.9736,4.1514,16.9473Zm19.2109,0c3.1455-4.7178,3.6807-13.8311,3.7705-16.9463a8.947,8.947,0,0,1,4.4112,1.783A20.7067,20.7067,0,0,0,29,39v2a5.9688,5.9688,0,0,0,1.54,4ZM45,41a4.004,4.004,0,0,1-4,4H35a4.004,4.004,0,0,1-4-4V39c0-5.6055,3.4668-10.6387,4.4893-12h5.0225C41.5342,28.3584,45,33.3779,45,39Z"/><path class="cls-10" d="M39,33a1,1,0,0,0-2,0,2.0026,2.0026,0,0,0-2,2v1a2.0026,2.0026,0,0,0,2,2h2v1H36a1,1,0,0,0,0,2h1a1,1,0,0,0,2,0,2.0026,2.0026,0,0,0,2-2V38a2.0026,2.0026,0,0,0-2-2H37V35h3a1,1,0,0,0,0-2Z"/></g></svg>