<svg xmlns="http://www.w3.org/2000/svg" viewBox="0 0 48 48"><defs><style>.cls-1{fill:#ffbc5a;}.cls-2{fill:#ef9d3a;}.cls-3{fill:#d3dbef;}.cls-4{fill:#bfcae2;}.cls-5{fill:#cc8679;}.cls-6{fill:#bf7267;}.cls-7{fill:#4ac6b7;}.cls-8{fill:#231f20;}</style></defs><title>Pie Chart</title><g id="Pie_Chart" data-name="Pie Chart"><path class="cls-1" d="M4,2H44a2,2,0,0,1,2,2V6a0,0,0,0,1,0,0H2A0,0,0,0,1,2,6V4A2,2,0,0,1,4,2Z"/><path class="cls-2" d="M44,2H41a2,2,0,0,1,2,2V6h3V4A2,2,0,0,0,44,2Z"/><path class="cls-1" d="M2,31H46a0,0,0,0,1,0,0v2a2,2,0,0,1-2,2H4a2,2,0,0,1-2-2V31A0,0,0,0,1,2,31Z"/><path class="cls-2" d="M43,31v2a2,2,0,0,1-2,2h3a2,2,0,0,0,2-2V31Z"/><rect class="cls-3" x="3" y="6" width="42" height="25"/><rect class="cls-4" x="42" y="6" width="3" height="25"/><path class="cls-5" d="M16.5991,46H13l4-11h5l-3.5213,9.6835A2,2,0,0,1,16.5991,46Z"/><path class="cls-6" d="M20,35l-3.5212,9.6835A2,2,0,0,1,14.5991,46h2a2,2,0,0,0,1.88-1.3165L22,35Z"/><path class="cls-5" d="M35,46H31.4009a2,2,0,0,1-1.88-1.3165L26,35h5Z"/><polygon class="cls-6" points="31 35 29 35 33 46 35 46 31 35"/><circle class="cls-7" cx="24" cy="18" r="8"/><path class="cls-1" d="M24,10v8h8A8,8,0,0,0,24,10Z"/><path class="cls-8" d="M47,6V4a3.0033,3.0033,0,0,0-3-3H4A3.0033,3.0033,0,0,0,1,4V6A1,1,0,0,0,2,7V30a1,1,0,0,0-1,1v2a3.0033,3.0033,0,0,0,3,3H15.5721L12.06,45.6582A1.0008,1.0008,0,0,0,13,47h3.5991a3.0093,3.0093,0,0,0,2.8193-1.9746L22.7006,36h2.5989l3.2821,9.0254A3.0093,3.0093,0,0,0,31.4009,47H35a1.0008,1.0008,0,0,0,.94-1.3418L32.4279,36H44a3.0033,3.0033,0,0,0,3-3V31a1,1,0,0,0-1-1V7A1,1,0,0,0,47,6ZM3,4A1.001,1.001,0,0,1,4,3H44a1.001,1.001,0,0,1,1,1V5H3ZM17.5386,44.3418A1.0027,1.0027,0,0,1,16.5991,45H14.4277L17.7,36h2.8721ZM33.5723,45H31.4009a1.0027,1.0027,0,0,1-.9395-.6582L27.4277,36H30.3ZM45,33a1.001,1.001,0,0,1-1,1H4a1.001,1.001,0,0,1-1-1V32H45Zm-1-3H4V7H44Z"/><path class="cls-8" d="M24,27a9,9,0,1,0-9-9A9.01,9.01,0,0,0,24,27Zm6.92-10H25V11.08A7.0046,7.0046,0,0,1,30.92,17ZM23,11.08V18a1,1,0,0,0,1,1h6.92A6.9957,6.9957,0,1,1,23,11.08Z"/></g></svg>