<svg xmlns="http://www.w3.org/2000/svg" viewBox="0 0 48 48"><defs><style>.cls-1{fill:#505572;}.cls-2{fill:#3d4360;}.cls-3{fill:#d3dbef;}.cls-4{fill:#8491c1;}.cls-5{fill:#231f20;}</style></defs><title>Services</title><g id="Services"><path class="cls-1" d="M44,20H42.57a18.8731,18.8731,0,0,0-2.6166-6.2966l1.0171-1.0171a2,2,0,0,0,0-2.8284L38.1422,7.0294a2,2,0,0,0-2.8284,0L34.2966,8.0465A18.8731,18.8731,0,0,0,28,5.43V4a2,2,0,0,0-2-2H22a2,2,0,0,0-2,2V5.43a18.8731,18.8731,0,0,0-6.2966,2.6166L12.6863,7.0294a2,2,0,0,0-2.8284,0L7.0294,9.8578a2,2,0,0,0,0,2.8284l1.0171,1.0171A18.8731,18.8731,0,0,0,5.43,20H4a2,2,0,0,0-2,2v4a2,2,0,0,0,2,2H5.43a18.8731,18.8731,0,0,0,2.6166,6.2966L7.0294,35.3137a2,2,0,0,0,0,2.8284l2.8284,2.8284a2,2,0,0,0,2.8284,0l1.0171-1.0171A18.8732,18.8732,0,0,0,20,42.57V44a2,2,0,0,0,2,2h4a2,2,0,0,0,2-2V42.57a18.8732,18.8732,0,0,0,6.2966-2.6166l1.0171,1.0171a2,2,0,0,0,2.8284,0l2.8284-2.8284a2,2,0,0,0,0-2.8284l-1.0171-1.0171A18.8731,18.8731,0,0,0,42.57,28H44a2,2,0,0,0,2-2V22A2,2,0,0,0,44,20Z"/><path class="cls-2" d="M24,39A15,15,0,1,1,39,24,15.0167,15.0167,0,0,1,24,39Z"/><circle class="cls-3" cx="24" cy="24" r="13"/><path class="cls-4" d="M26,31H22a3.0033,3.0033,0,0,1-3-3,1,1,0,0,1,2,0,1.001,1.001,0,0,0,1,1h4a1.001,1.001,0,0,0,1-1V26a1.001,1.001,0,0,0-1-1H22a3.0033,3.0033,0,0,1-3-3V20a3.0033,3.0033,0,0,1,3-3h4a3.0033,3.0033,0,0,1,3,3,1,1,0,0,1-2,0,1.001,1.001,0,0,0-1-1H22a1.001,1.001,0,0,0-1,1v2a1.001,1.001,0,0,0,1,1h4a3.0033,3.0033,0,0,1,3,3v2A3.0033,3.0033,0,0,1,26,31Z"/><path class="cls-4" d="M24,19a1,1,0,0,1-1-1V16a1,1,0,0,1,2,0v2A1,1,0,0,1,24,19Z"/><path class="cls-4" d="M24,33a1,1,0,0,1-1-1V30a1,1,0,0,1,2,0v2A1,1,0,0,1,24,33Z"/><path class="cls-5" d="M44,19h-.6387a19.8172,19.8172,0,0,0-2.1406-5.1494l.4575-.457a3.005,3.005,0,0,0,0-4.2432L38.85,6.3223a3.0743,3.0743,0,0,0-4.2437,0l-.4565.457A19.8229,19.8229,0,0,0,29,4.6387V4a3.0033,3.0033,0,0,0-3-3H22a3.0033,3.0033,0,0,0-3,3v.6387a19.8229,19.8229,0,0,0-5.1494,2.1406l-.457-.457a3.0731,3.0731,0,0,0-4.2427,0L6.3218,9.15a3.005,3.005,0,0,0,0,4.2432l.457.457A19.8172,19.8172,0,0,0,4.6387,19H4a3.0033,3.0033,0,0,0-3,3v4a3.0033,3.0033,0,0,0,3,3h.6387a19.8172,19.8172,0,0,0,2.1406,5.1494l-.4575.457a3.005,3.005,0,0,0,0,4.2432L9.15,41.6777a3.0743,3.0743,0,0,0,4.2437,0l.4565-.457A19.8229,19.8229,0,0,0,19,43.3613V44a3.0033,3.0033,0,0,0,3,3h4a3.0033,3.0033,0,0,0,3-3v-.6387a19.8229,19.8229,0,0,0,5.1494-2.1406l.457.457a3.0731,3.0731,0,0,0,4.2427,0L41.6782,38.85a3.005,3.005,0,0,0,0-4.2432l-.457-.457A19.8172,19.8172,0,0,0,43.3613,29H44a3.0033,3.0033,0,0,0,3-3V22A3.0033,3.0033,0,0,0,44,19Zm1,7a1.001,1.001,0,0,1-1,1H42.57a1,1,0,0,0-.9775.79,17.8639,17.8639,0,0,1-2.479,5.9639,1,1,0,0,0,.1328,1.25l1.0166,1.0166a1.0021,1.0021,0,0,1,0,1.415l-2.8291,2.8281a1.0229,1.0229,0,0,1-1.4136,0l-1.0166-1.0176a.9991.9991,0,0,0-1.251-.1328A17.8392,17.8392,0,0,1,27.79,41.5928.9992.9992,0,0,0,27,42.57V44a1.001,1.001,0,0,1-1,1H22a1.001,1.001,0,0,1-1-1V42.57a.9992.9992,0,0,0-.79-.9775,17.8392,17.8392,0,0,1-5.9634-2.4795,1.0014,1.0014,0,0,0-1.251.1328l-1.0161,1.0176a1.0241,1.0241,0,0,1-1.4146,0L7.7368,37.4355a1.0021,1.0021,0,0,1,0-1.415l1.0171-1.0166a1,1,0,0,0,.1328-1.25A17.8639,17.8639,0,0,1,6.4072,27.79,1,1,0,0,0,5.43,27H4a1.001,1.001,0,0,1-1-1V22a1.001,1.001,0,0,1,1-1H5.43a1,1,0,0,0,.9775-.79,17.8639,17.8639,0,0,1,2.479-5.9639,1,1,0,0,0-.1328-1.25L7.7368,11.9795a1.0021,1.0021,0,0,1,0-1.415l2.8291-2.8281a1.0229,1.0229,0,0,1,1.4136,0l1.0166,1.0176a1.0014,1.0014,0,0,0,1.251.1328A17.8392,17.8392,0,0,1,20.21,6.4072.9992.9992,0,0,0,21,5.43V4a1.001,1.001,0,0,1,1-1h4a1.001,1.001,0,0,1,1,1V5.43a.9992.9992,0,0,0,.79.9775,17.8392,17.8392,0,0,1,5.9634,2.4795,1,1,0,0,0,1.251-.1328l1.0161-1.0176a1.0241,1.0241,0,0,1,1.4146,0l2.8281,2.8281a1.0021,1.0021,0,0,1,0,1.415l-1.0171,1.0166a1,1,0,0,0-.1328,1.25,17.8639,17.8639,0,0,1,2.479,5.9639A1,1,0,0,0,42.57,21H44a1.001,1.001,0,0,1,1,1Z"/><path class="cls-5" d="M24,10A14,14,0,1,0,38,24,14.0157,14.0157,0,0,0,24,10Zm0,26A12,12,0,1,1,36,24,12.0134,12.0134,0,0,1,24,36Z"/><path class="cls-5" d="M22,19h4a1.001,1.001,0,0,1,1,1,1,1,0,0,0,2,0,3.0033,3.0033,0,0,0-3-3H25V16a1,1,0,0,0-2,0v1H22a3.0033,3.0033,0,0,0-3,3v2a3.0033,3.0033,0,0,0,3,3h4a1.001,1.001,0,0,1,1,1v2a1.001,1.001,0,0,1-1,1H22a1.001,1.001,0,0,1-1-1,1,1,0,0,0-2,0,3.0033,3.0033,0,0,0,3,3h1v1a1,1,0,0,0,2,0V31h1a3.0033,3.0033,0,0,0,3-3V26a3.0033,3.0033,0,0,0-3-3H22a1.001,1.001,0,0,1-1-1V20A1.001,1.001,0,0,1,22,19Z"/></g></svg>