<svg xmlns="http://www.w3.org/2000/svg" viewBox="0 0 48 48"><defs><style>.cls-1{fill:#cc8679;}.cls-2{fill:#bf7267;}.cls-3{fill:#505572;}.cls-4{fill:#d3dbef;}.cls-5{fill:#bfcae2;}.cls-6{fill:#4ac6b7;}.cls-7{fill:#ffbc5a;}.cls-8{fill:#e05555;}.cls-9{fill:#231f20;}</style></defs><title>Research</title><g id="Research"><rect class="cls-1" x="33.2825" y="23.7825" width="6" height="25" rx="3" ry="3" transform="translate(-15.0287 36.2825) rotate(-45)"/><path class="cls-2" d="M45.1213,40.8787,31.6863,27.4436a3,3,0,0,0-4.2426,0h0a2.9682,2.9682,0,0,0-.54.7664,2.9983,2.9983,0,0,1,3.2177.6686l13.435,13.4351a2.99,2.99,0,0,1,.54,3.4763,2.9952,2.9952,0,0,0,1.025-4.9113Z"/><circle class="cls-3" cx="20" cy="20" r="18"/><circle class="cls-4" cx="20" cy="20" r="14"/><path class="cls-5" d="M20,6a14.14,14.14,0,0,0-1.5.0828,13.9976,13.9976,0,0,1,0,27.8345A13.999,13.999,0,1,0,20,6Z"/><circle class="cls-6" cx="43" cy="8" r="3"/><circle class="cls-7" cx="26" cy="23" r="3"/><circle class="cls-8" cx="15" cy="15" r="3"/><path class="cls-9" d="M35.9508,30.2887A18.8,18.8,0,0,0,37.94,13.8009l2.8166-2.49A4.1288,4.1288,0,1,0,39.4467,9.8l-2.3129,2.0447A18.982,18.982,0,1,0,3.18,28.809L1.2051,31.3945a1,1,0,0,0,1.59,1.2148l1.4875-1.9476a18.943,18.943,0,0,0,26.0049,5.2905l9.8856,9.8768a3.9984,3.9984,0,0,0,5.6548-5.6543ZM43,6.002a2,2,0,1,1-2,2A2.0023,2.0023,0,0,1,43,6.002Zm-40,14a17,17,0,1,1,17,17A17.019,17.019,0,0,1,3,20.002ZM44.4131,44.415a2.001,2.001,0,0,1-2.8267,0l-9.6555-9.6465a19.15,19.15,0,0,0,2.8353-2.8351l9.6469,9.6555A2,2,0,0,1,44.4131,44.415Z"/><path class="cls-9" d="M34.4818,16.1565a.9527.9527,0,0,0-.0366-.1423,17.104,17.104,0,1,0,.0366.1423ZM20,7.002a13.02,13.02,0,0,1,12.3795,9.0427l-4.1357,3.6487a3.9473,3.9473,0,0,0-4.7712.2341l-4.7589-3.4613a4.0017,4.0017,0,1,0-6.8489.99l-4.4358,5.8A12.9489,12.9489,0,0,1,20,7.002Zm4.3831,14.8328.0056-.0047.0021-.0045a1.6951,1.6951,0,1,1-.0076.0092ZM13,15.002a2,2,0,1,1,3.6182,1.1656l-.0068.0062-.0021.0045A1.9946,1.9946,0,0,1,13,15.002Zm7,18A13.0052,13.0052,0,0,1,8.2346,25.4953l5.2074-6.81a3.9436,3.9436,0,0,0,4.0855-.6093l4.7589,3.4613a4.0035,4.0035,0,1,0,7.2676-.3329l3.318-2.9273A12.9087,12.9087,0,0,1,20,33.002Z"/></g></svg>