<svg xmlns="http://www.w3.org/2000/svg" viewBox="0 0 48 48"><defs><style>.cls-1{fill:#dd8628;}.cls-2{fill:#ef9d3a;}.cls-3{fill:#ffbc5a;}.cls-4{fill:#231f20;}</style></defs><title>Gold</title><g id="Gold"><path class="cls-1" d="M20,24H7.584a2,2,0,0,0-1.9468,1.5419L2,41H24Z"/><path class="cls-2" d="M40.416,24H28L24,41H46L42.3628,25.5419A2,2,0,0,0,40.416,24Z"/><path class="cls-1" d="M42.3628,25.5419A2,2,0,0,0,40.416,24h-3a2,2,0,0,1,1.9468,1.5419L43,41h3Z"/><path class="cls-3" d="M29.416,7H18.584a2,2,0,0,0-1.9468,1.5419L13,24H35L31.3628,8.5419A2,2,0,0,0,29.416,7Z"/><path class="cls-2" d="M31.3628,8.5419A2,2,0,0,0,29.416,7h-3a2,2,0,0,1,1.9468,1.5419L32,24h3Z"/><path class="cls-4" d="M46.9736,40.771,43.3369,25.3125A2.9906,2.9906,0,0,0,40.416,23H35.7922L32.3369,8.3125A2.9906,2.9906,0,0,0,29.416,6H18.584a2.9905,2.9905,0,0,0-2.9209,2.313L12.2078,23H7.584a2.9905,2.9905,0,0,0-2.9209,2.313L1.0264,40.771A1,1,0,0,0,2,42H46a1,1,0,0,0,.9736-1.229Zm-29.3633-32A.996.996,0,0,1,18.584,8H29.416a.9961.9961,0,0,1,.9736.771L33.7373,23H14.2627ZM24,36.6331,21.2628,25h5.4744ZM3.2627,40,6.61,25.7715A.996.996,0,0,1,7.584,25H19.208l3.5293,15Zm22,0L28.792,25H40.416a.9961.9961,0,0,1,.9736.771L44.7373,40Z"/></g></svg>