<svg xmlns="http://www.w3.org/2000/svg" viewBox="0 0 48 48"><defs><style>.cls-1{fill:#505572;}.cls-2{fill:#8491c1;}.cls-3{fill:#d3dbef;}.cls-4{fill:#bfcae2;}.cls-5{fill:#231f20;}</style></defs><title>Check Book</title><g id="Check_book" data-name="Check book"><path class="cls-1" d="M6,33v2a4.0008,4.0008,0,0,0-3.9812,4.3929A4.1161,4.1161,0,0,0,6.1719,43H41a2,2,0,0,0,2-2V33Z"/><path class="cls-2" d="M6,5A4,4,0,0,0,2,9V39a4,4,0,0,1,8,0V9A4,4,0,0,0,6,5Z"/><path class="cls-3" d="M10,9H44a2,2,0,0,1,2,2V37a2,2,0,0,1-2,2H10a0,0,0,0,1,0,0V9A0,0,0,0,1,10,9Z"/><path class="cls-4" d="M44,9H41a2,2,0,0,1,2,2V37a2,2,0,0,1-2,2h3a2,2,0,0,0,2-2V11A2,2,0,0,0,44,9Z"/><path class="cls-2" d="M32,20H25a1,1,0,0,1,0-2h7a1,1,0,0,1,0,2Z"/><path class="cls-2" d="M41,25H25a1,1,0,0,1,0-2H41a1,1,0,0,1,0,2Z"/><path class="cls-2" d="M41,30H25a1,1,0,0,1,0-2H41a1,1,0,0,1,0,2Z"/><path class="cls-2" d="M19,28H16a1,1,0,0,1,0-2h3V25H17a2.0023,2.0023,0,0,1-2-2V22a2.0023,2.0023,0,0,1,2-2h3a1,1,0,0,1,0,2H17v1h2a2.0023,2.0023,0,0,1,2,2v1A2.0023,2.0023,0,0,1,19,28Z"/><path class="cls-2" d="M18,22a1,1,0,0,1-1-1V20a1,1,0,0,1,2,0v1A1,1,0,0,1,18,22Z"/><path class="cls-2" d="M18,29a1,1,0,0,1-1-1V27a1,1,0,0,1,2,0v1A1,1,0,0,1,18,29Z"/><path class="cls-5" d="M44,8H10.8989A5,5,0,0,0,1,9V39c0,.1543.0107.3086.0244.4858A5.1347,5.1347,0,0,0,6.17,44H41a3.0033,3.0033,0,0,0,3-3V40a3.0033,3.0033,0,0,0,3-3V11A3.0033,3.0033,0,0,0,44,8ZM3,9A3,3,0,0,1,9,9V35.0024a4.99,4.99,0,0,0-6,0ZM42,41a1.001,1.001,0,0,1-1,1H6.17a3.117,3.117,0,0,1-3.1533-2.686C3.0088,39.209,3,39.1045,3,39a3,3,0,0,1,6,0,1,1,0,0,0,1,1H42Zm3-4a1.001,1.001,0,0,1-1,1H11V10H44a1.001,1.001,0,0,1,1,1Z"/><path class="cls-5" d="M25,20h7a1,1,0,0,0,0-2H25a1,1,0,0,0,0,2Z"/><path class="cls-5" d="M41,23H25a1,1,0,0,0,0,2H41a1,1,0,0,0,0-2Z"/><path class="cls-5" d="M41,28H25a1,1,0,0,0,0,2H41a1,1,0,0,0,0-2Z"/><path class="cls-5" d="M20,22a1,1,0,0,0,0-2H19a1,1,0,0,0-2,0,2.0023,2.0023,0,0,0-2,2v1a2.0023,2.0023,0,0,0,2,2h2v1H16a1,1,0,0,0,0,2h1a1,1,0,0,0,2,0,2.0023,2.0023,0,0,0,2-2V25a2.0023,2.0023,0,0,0-2-2H17V22Z"/></g></svg>